<svg xmlns="http://www.w3.org/2000/svg" xmlns:xlink="http://www.w3.org/1999/xlink" width="24" height="23" viewBox="0 0 24 23"><defs><style>.a{fill:#fff;stroke:#707070;}.b{clip-path:url(#a);}.c{fill:#f26522;}</style><clipPath id="a"><rect class="a" width="24" height="23" transform="translate(-0.327 0.064)"/></clipPath></defs><g class="b" transform="translate(0.327 -0.064)"><g transform="translate(0.163 0.428)"><path class="c" d="M16.666,0H6.352A6.359,6.359,0,0,0,0,6.352V16.666a6.359,6.359,0,0,0,6.352,6.352H16.666a6.36,6.36,0,0,0,6.352-6.352V6.352A6.359,6.359,0,0,0,16.666,0Zm4.31,16.666a4.315,4.315,0,0,1-4.31,4.31H6.352a4.315,4.315,0,0,1-4.31-4.31V6.352a4.315,4.315,0,0,1,4.31-4.31H16.666a4.315,4.315,0,0,1,4.31,4.31V16.666Z"/><path class="c" d="M11.747,5.816a5.931,5.931,0,1,0,5.931,5.931A5.938,5.938,0,0,0,11.747,5.816Zm0,9.82a3.889,3.889,0,1,1,3.889-3.889A3.893,3.893,0,0,1,11.747,15.636Z" transform="translate(-0.238 -0.238)"/><path class="c" d="M18.38,4.011a1.5,1.5,0,1,0,1.059.438A1.5,1.5,0,0,0,18.38,4.011Z" transform="translate(-0.69 -0.164)"/></g></g></svg>