<svg xmlns="http://www.w3.org/2000/svg" xmlns:xlink="http://www.w3.org/1999/xlink" width="24" height="24" viewBox="0 0 24 24"><defs><style>.a{fill:#fff;stroke:#707070;}.b{clip-path:url(#a);}.c{fill:#f26522;}</style><clipPath id="a"><rect class="a" width="24" height="24" transform="translate(-0.327 -0.327)"/></clipPath></defs><g class="b" transform="translate(0.327 0.327)"><path class="c" d="M8.587,18.839A19.751,19.751,0,0,1,5.537,18.6a14.317,14.317,0,0,1-4.173-1.519L0,16.333l1.477-.486c1.614-.531,2.6-.86,3.811-1.376a5.07,5.07,0,0,1-2.607-3.02l-.344-1.043.282.043a5.122,5.122,0,0,1-.642-.791,4.856,4.856,0,0,1-.824-2.887l.065-.91.545.211A5.1,5.1,0,0,1,1.27,4.691a5.266,5.266,0,0,1,.561-3.545L2.306.274l.635.763A11.684,11.684,0,0,0,10.51,5.3a4.527,4.527,0,0,1,.275-2.405,4.5,4.5,0,0,1,1.831-2.1A5.5,5.5,0,0,1,15.807.01,5.1,5.1,0,0,1,18.941,1.3,10.519,10.519,0,0,0,20.088.92c.251-.095.537-.2.894-.325L22.3.142l-.858,2.449c.057,0,.115-.009.176-.011l1.4-.064-.83,1.134c-.048.065-.06.083-.077.109-.067.1-.15.226-1.289,1.747a2.146,2.146,0,0,0-.4,1.4,13.216,13.216,0,0,1-.721,5.316,9.406,9.406,0,0,1-2.525,3.74,11.152,11.152,0,0,1-5.286,2.556,16.274,16.274,0,0,1-3.3.324Zm0,0" transform="translate(0.163 2.253)"/></g></svg>