<svg xmlns="http://www.w3.org/2000/svg" xmlns:xlink="http://www.w3.org/1999/xlink" width="24" height="23" viewBox="0 0 24 23"><defs><style>.a{fill:#fff;stroke:#707070;}.b{clip-path:url(#a);}.c{fill:#f26522;}</style><clipPath id="a"><rect class="a" width="24" height="23" transform="translate(-0.327 0.282)"/></clipPath></defs><g class="b" transform="translate(0.327 -0.282)"><g transform="translate(5.45 -0.101)"><path class="c" d="M17.489,0,14.5,0C11.15,0,8.983,2.223,8.983,5.665V8.277h-3a.469.469,0,0,0-.469.47v3.784A.469.469,0,0,0,5.982,13h3v9.549a.469.469,0,0,0,.469.469h3.916a.469.469,0,0,0,.469-.469V13h3.509a.469.469,0,0,0,.469-.469V8.746a.47.47,0,0,0-.47-.47h-3.51V6.063c0-1.064.254-1.6,1.64-1.6h2.011a.469.469,0,0,0,.469-.469V.474A.47.47,0,0,0,17.489,0Z" transform="translate(-5.512)"/></g></g></svg>